<?xml version="1.0" encoding="UTF-8"?>
<svg id="Layer_2" data-name="Layer 2" xmlns="http://www.w3.org/2000/svg" viewBox="0 0 709.79 444.26">
  <defs>
    <style>
      .cls-1 {
        font-family: LeelawadeeUI-Semilight, 'Leelawadee UI';
        font-size: 24.07px;
        font-weight: 300;
        letter-spacing: .25em;
      }

      .cls-1, .cls-2 {
        fill: #ffdcaa;
      }

      .cls-3 {
        fill: #ed3437;
      }

      .cls-4 {
        fill: none;
        stroke: #ee3437;
        stroke-miterlimit: 10;
        stroke-width: 9px;
      }
    </style>
  </defs>
  <g>
    <path class="cls-4" d="m335.83,370.32c-81.91-.62-147.7-67.41-147.07-149.32.62-81.91,67.41-147.7,149.32-147.07l.79.02c81.91.62,147.7,67.41,147.07,149.32-.62,81.91-67.41,147.7-149.32,147.07l-.79-.02Z"/>
    <path class="cls-4" d="m335.83,370.32c68.26.52,123.92-54.3,124.44-122.56.52-68.26-54.3-123.92-122.56-124.44-54.61-.41-99.13,43.44-99.55,98.05-.41,54.61,43.44,99.13,98.05,99.55,40.96.31,74.35-32.58,74.66-73.54.31-40.96-32.58-74.35-73.54-74.66-27.3-.21-49.57,21.72-49.77,49.02-.21,27.3,21.72,49.57,49.02,49.77,13.65.1,25.03-9.93,24.45-23.6-.7-16.41-22.4-20.04-24.96-21.83"/>
  </g>
  <path class="cls-3" d="m337.4,221.83c-5.51-2.33-11.64-4.86-11.64-11.64,0-6.29,5.22-10.27,13.11-10.27,6.5,0,11.65,2.53,15.96,6.59l4.74-5.75c-4.94-5.1-12.37-8.71-20.71-8.71-12.78,0-22.14,7.92-22.14,18.66s7.69,15.31,14.24,18.11l4.76,2.1,2.88-8.58-1.21-.52Z"/>
  <g>
    <path class="cls-2" d="m218.69,226.66c-1.51,4.18-2.84,8.5-4.35,12.75h-.38c-1.51-4.25-2.96-8.57-4.47-12.75l-12.07-32.71h-9.65v61.21h7.26v-33.71c0-5.33-.62-12.69-1.02-18.1h.38l4.99,13.96,11.92,31.67h5.31l11.86-31.67,5-13.96h.38c-.4,5.41-1.02,12.77-1.02,18.1v33.71h7.45v-61.21h-9.65l-11.93,32.71Z"/>
    <rect class="cls-2" x="276.7" y="193.95" width="8.01" height="61.21"/>
    <path class="cls-2" d="m424.16,219.04h-10.34v-25.09h-28.21v6.59h20.2v54.62h18.98c13.92,0,23-5.74,23-18.8,0-12.05-10.15-17.33-23.63-17.33Zm-.38,29.81h-9.96v-23.49h9.33c10.96,0,16.77,3.66,16.77,11.19,0,8.59-5.52,12.3-16.14,12.3Z"/>
    <polygon class="cls-2" points="487.83 248.58 487.83 193.95 479.81 193.95 479.81 255.17 515.31 255.17 515.31 248.58 487.83 248.58"/>
  </g>
  <text class="cls-1" transform="translate(403.56 288.36)"><tspan x="0" y="0">STUDIO</tspan></text>
</svg>